<svg xmlns="http://www.w3.org/2000/svg" viewBox="0 0 64 64" aria-hidden="true" role="img">
  <defs>
    <linearGradient id="cap" x1="0%" y1="0%" x2="100%" y2="100%">
      <stop offset="0%" stop-color="#cfe1fb"/>
      <stop offset="100%" stop-color="#a9c5f2"/>
    </linearGradient>
    <linearGradient id="body" x1="0%" y1="0%" x2="100%" y2="100%">
      <stop offset="0%" stop-color="#5a97e8"/>
      <stop offset="100%" stop-color="#2b77d2"/>
    </linearGradient>
    <linearGradient id="rim" x1="0%" y1="0%" x2="100%" y2="0%">
      <stop offset="0%" stop-color="#0a6ac7"/>
      <stop offset="100%" stop-color="#0a5fb3"/>
    </linearGradient>
  </defs>

  <!-- top cylinder -->
  <ellipse cx="32" cy="14" rx="26" ry="12" fill="url(#body)"/>
  <ellipse cx="28" cy="11.5" rx="22" ry="9.8" fill="url(#cap)"/>

  <!-- main body -->
  <path d="M6 14c0 6.6 11.6 12 26 12s26-5.4 26-12v34c0 6.6-11.6 12-26 12S6 54.6 6 48V14z" fill="url(#body)"/>

  <!-- dark rims between stacks -->
  <path d="M6 27c0 6.2 11.6 11.3 26 11.3S58 33.2 58 27v5c0 6.2-11.6 11.3-26 11.3S6 38.2 6 32v-5z" fill="url(#rim)"/>
  <path d="M6 41c0 6.2 11.6 11.3 26 11.3S58 47.2 58 41v5c0 6.2-11.6 11.3-26 11.3S6 52.2 6 46v-5z" fill="url(#rim)"/>

  <!-- left grooves -->
  <rect x="13" y="21" width="18" height="4.8" rx="2.4" fill="#0f6dcc" opacity="0.95"/>
  <rect x="13" y="35" width="18" height="4.8" rx="2.4" fill="#0f6dcc" opacity="0.95"/>
  <rect x="13" y="49" width="18" height="4.8" rx="2.4" fill="#0f6dcc" opacity="0.95"/>

  <!-- indicator lights -->
  <circle cx="46.8" cy="24.5" r="2.2" fill="#ffd45a"/>
  <circle cx="52.2" cy="22.8" r="2.2" fill="#ff7a3a"/>
  <circle cx="47.8" cy="38.7" r="2.2" fill="#ff7a3a"/>
  <circle cx="52.8" cy="40.8" r="2.2" fill="#ffd45a"/>
  <circle cx="48.8" cy="53.2" r="2.2" fill="#ffd45a"/>
  <circle cx="53.2" cy="51.0" r="2.2" fill="#ff7a3a"/>
</svg>
